<?xml version="1.0" encoding="UTF-8" standalone="no"?>
<!-- Generator: Adobe Illustrator 18.1.1, SVG Export Plug-In . SVG Version: 6.00 Build 0)  -->

<svg
   xmlns:dc="http://purl.org/dc/elements/1.1/"
   xmlns:cc="http://creativecommons.org/ns#"
   xmlns:rdf="http://www.w3.org/1999/02/22-rdf-syntax-ns#"
   xmlns:svg="http://www.w3.org/2000/svg"
   xmlns="http://www.w3.org/2000/svg"
   xmlns:sodipodi="http://sodipodi.sourceforge.net/DTD/sodipodi-0.dtd"
   xmlns:inkscape="http://www.inkscape.org/namespaces/inkscape"
   version="1.1"
   id="Capa_1"
   x="0px"
   y="0px"
   viewBox="0 0 31.999 31.999"
   style="enable-background:new 0 0 31.999 31.999;"
   xml:space="preserve"
   inkscape:version="0.91 r13725"
   sodipodi:docname="icon-android.svg"
   inkscape:export-filename="/home/remipassmoilesel/projects/www/cordova/weather/www/img/icon-android.png"
   inkscape:export-xdpi="180.00562"
   inkscape:export-ydpi="180.00562"><metadata
     id="metadata40"><rdf:RDF><cc:Work
         rdf:about=""><dc:format>image/svg+xml</dc:format><dc:type
           rdf:resource="http://purl.org/dc/dcmitype/StillImage" /><dc:title></dc:title></cc:Work></rdf:RDF></metadata><defs
     id="defs38" /><sodipodi:namedview
     pagecolor="#ffffff"
     bordercolor="#666666"
     borderopacity="1"
     objecttolerance="10"
     gridtolerance="10"
     guidetolerance="10"
     inkscape:pageopacity="1"
     inkscape:pageshadow="2"
     inkscape:window-width="1920"
     inkscape:window-height="1061"
     id="namedview36"
     showgrid="false"
     inkscape:zoom="7.3752303"
     inkscape:cx="40.608901"
     inkscape:cy="15.9995"
     inkscape:window-x="0"
     inkscape:window-y="0"
     inkscape:window-maximized="1"
     inkscape:current-layer="Capa_1" /><path
     inkscape:connector-curvature="0"
     d="M 24.568797,9.097322 C 24.191051,5.1538983 20.907169,2.0593221 16.863475,2.0593221 c -3.128289,0 -5.806221,1.8567457 -7.0414576,4.5208479 C 9.4503225,6.46261 9.0630682,6.381356 8.652475,6.381356 c -2.1480508,0 -3.8898305,1.742644 -3.8898305,3.88983 0,0.427017 0.085576,0.830695 0.2126441,1.213628 -1.6708983,0.974186 -2.8058644,2.761779 -2.8058644,4.835491 0,3.10322 2.5154237,5.618644 5.618644,5.618644 l 0,0.0017 15.5584568,0 0,-0.0017 c 3.581238,0 6.483051,-2.901813 6.483051,-6.483051 0,-3.161135 -2.26561,-5.785474 -5.260779,-6.358576 z m -1.222272,11.111949 0,0.0026 -15.5584568,0 c -2.1445932,-0.0026 -3.8898305,-1.746966 -3.8898305,-3.891559 0,-1.383051 0.7286949,-2.632119 1.9483729,-3.342661 1.1851017,-0.680288 1.2663559,-0.815136 0.769322,-2.037407 C 6.5320852,10.688695 6.4914581,10.47 6.4914581,10.272051 c 0,-1.192017 0.969,-2.161017 2.1610169,-2.161017 0,0 0.5670508,-0.04063 1.1695424,0.198813 0.9914746,0.395034 1.0995246,0.01729 1.5680336,-1.001847 0.991474,-2.1376779 3.139525,-3.5198644 5.473424,-3.5198644 3.111864,0 5.684339,2.3537794 5.985152,5.4751524 0.106322,1.237831 0.106322,1.237831 1.396017,1.532593 2.235356,0.427017 3.856119,2.387492 3.856119,4.660017 0,2.621746 -2.132492,4.753373 -4.754238,4.753373 z"
     style="fill:#0018ff;fill-opacity:1"
     id="cloud" /><g
     id="g6" /><g
     id="g8" /><g
     id="g10" /><g
     id="g12" /><g
     id="g14" /><g
     id="g16" /><g
     id="g18" /><g
     id="g20" /><g
     id="g22" /><g
     id="g24" /><g
     id="g26" /><g
     id="g28" /><g
     id="g30" /><g
     id="g32" /><g
     id="g34" /><text
     xml:space="preserve"
     style="font-style:normal;font-weight:normal;font-size:11.82136154px;line-height:125%;font-family:sans-serif;letter-spacing:0px;word-spacing:0px;fill:#0018ff;fill-opacity:1;stroke:none;stroke-width:1px;stroke-linecap:butt;stroke-linejoin:miter;stroke-opacity:1"
     x="2.6698945"
     y="29.244167"
     id="text4169"
     sodipodi:linespacing="125%"><tspan
       sodipodi:role="line"
       id="tspan4171"
       x="2.6698945"
       y="29.244167"
       style="font-weight:bold;font-size:5.54126358px;fill:#0018ff;fill-opacity:1">Weather</tspan></text>
</svg>