<?xml version="1.0" encoding="UTF-8" standalone="no"?>
<!-- Generator: Adobe Illustrator 18.1.1, SVG Export Plug-In . SVG Version: 6.00 Build 0)  -->

<svg
   xmlns:dc="http://purl.org/dc/elements/1.1/"
   xmlns:cc="http://creativecommons.org/ns#"
   xmlns:rdf="http://www.w3.org/1999/02/22-rdf-syntax-ns#"
   xmlns:svg="http://www.w3.org/2000/svg"
   xmlns="http://www.w3.org/2000/svg"
   xmlns:sodipodi="http://sodipodi.sourceforge.net/DTD/sodipodi-0.dtd"
   xmlns:inkscape="http://www.inkscape.org/namespaces/inkscape"
   version="1.1"
   id="Capa_1"
   x="0px"
   y="0px"
   viewBox="0 0 200 320"
   xml:space="preserve"
   inkscape:version="0.91 r13725"
   sodipodi:docname="splash-android.svg"
   inkscape:export-filename="/home/remipassmoilesel/projects/www/cordova/weather/www/img/splash-android.png"
   inkscape:export-xdpi="180.00562"
   inkscape:export-ydpi="180.00562"
   width="200"
   height="320"><metadata
     id="metadata40"><rdf:RDF><cc:Work
         rdf:about=""><dc:format>image/svg+xml</dc:format><dc:type
           rdf:resource="http://purl.org/dc/dcmitype/StillImage" /><dc:title></dc:title></cc:Work></rdf:RDF></metadata><defs
     id="defs38" /><sodipodi:namedview
     pagecolor="#ffffff"
     bordercolor="#666666"
     borderopacity="1"
     objecttolerance="10"
     gridtolerance="10"
     guidetolerance="10"
     inkscape:pageopacity="1"
     inkscape:pageshadow="2"
     inkscape:window-width="1920"
     inkscape:window-height="1061"
     id="namedview36"
     showgrid="false"
     inkscape:zoom="0.65188443"
     inkscape:cx="-349.7563"
     inkscape:cy="36.206056"
     inkscape:window-x="0"
     inkscape:window-y="0"
     inkscape:window-maximized="1"
     inkscape:current-layer="Capa_1" /><g
     id="g6"
     transform="translate(0,288.001)" /><g
     id="g8"
     transform="translate(0,288.001)" /><g
     id="g10"
     transform="translate(0,288.001)" /><g
     id="g12"
     transform="translate(0,288.001)" /><g
     id="g14"
     transform="translate(0,288.001)" /><g
     id="g16"
     transform="translate(0,288.001)" /><g
     id="g18"
     transform="translate(0,288.001)" /><g
     id="g20"
     transform="translate(0,288.001)" /><g
     id="g22"
     transform="translate(0,288.001)" /><g
     id="g24"
     transform="translate(0,288.001)" /><g
     id="g26"
     transform="translate(0,288.001)" /><g
     id="g28"
     transform="translate(0,288.001)" /><g
     id="g30"
     transform="translate(0,288.001)" /><g
     id="g32"
     transform="translate(0,288.001)" /><g
     id="g34"
     transform="translate(0,288.001)" /><g
     id="g4192"
     transform="matrix(2.1485994,0,0,2.1485994,65.623484,-234.68046)"><path
       id="cloud"
       style="fill:#0018ff;fill-opacity:1"
       d="m 37.828345,166.89575 c -0.962244,-10.0452 -9.327382,-17.92813 -19.628014,-17.92813 -7.968791,0 -14.7903731,4.72976 -17.93693093,11.51611 -0.94683035,-0.29946 -1.93329567,-0.50643 -2.97921287,-0.50643 -5.4717988,0 -9.9086902,4.43908 -9.9086902,9.90868 0,1.08774 0.217991,2.11605 0.541675,3.0915 -4.256333,2.48158 -7.147468,7.03517 -7.147468,12.3176 0,7.90493 6.407619,14.31256 14.312552,14.31256 l 0,0.005 39.632557,0 0,-0.005 c 9.122602,0 16.514483,-7.39187 16.514483,-16.51448 0,-8.05247 -5.771261,-14.73754 -13.400951,-16.19741 z m -3.113532,28.30582 0,0.008 -39.632557,0 c -5.462991,-0.008 -9.90869,-4.45012 -9.90869,-9.9131 0,-3.52309 1.856228,-6.70488 4.9631527,-8.51486 3.0188476,-1.73293 3.225829,-2.07644 1.9597186,-5.18996 -0.2135861,-0.64079 -0.3170779,-1.19786 -0.3170779,-1.70211 0,-3.03647 2.4683648,-5.50483 5.5048278,-5.50483 0,0 1.4444667,-0.10342 2.97921287,0.50646 2.52561513,1.00627 2.80085433,0.0441 3.99430233,-2.55205 2.5256136,-5.44538 7.9974126,-8.96625 13.9426286,-8.96625 7.926951,0 14.479899,5.99584 15.24617,13.94703 0.270837,3.15316 0.270837,3.15316 3.556119,3.90401 5.694194,1.08776 9.822816,6.08173 9.822816,11.87062 0,6.67844 -5.432166,12.10841 -12.110623,12.10841 z"
       inkscape:connector-curvature="0" /><text
       sodipodi:linespacing="125%"
       id="text4169"
       y="218.21645"
       x="-17.955433"
       style="font-style:normal;font-weight:normal;font-size:30.11293411px;line-height:125%;font-family:sans-serif;letter-spacing:0px;word-spacing:0px;fill:#0018ff;fill-opacity:1;stroke:none;stroke-width:1px;stroke-linecap:butt;stroke-linejoin:miter;stroke-opacity:1"
       xml:space="preserve"><tspan
         style="font-weight:bold;font-size:14.11543846px;fill:#0018ff;fill-opacity:1"
         y="218.21645"
         x="-17.955433"
         id="tspan4171"
         sodipodi:role="line">Weather</tspan></text>
</g></svg>